<?xml version="1.0" standalone="no"?>
<!DOCTYPE svg PUBLIC "-//W3C//DTD SVG 20010904//EN"
 "http://www.w3.org/TR/2001/REC-SVG-20010904/DTD/svg10.dtd">
<svg version="1.0" xmlns="http://www.w3.org/2000/svg"
 width="512.000000pt" height="512.000000pt" viewBox="0 0 512.000000 512.000000"
 preserveAspectRatio="xMidYMid meet">

<g transform="translate(0.000000,512.000000) scale(0.100000,-0.100000)"
fill="#000000" stroke="none">
<path d="M1120 4903 c-119 -5 -264 -24 -350 -44 -272 -66 -444 -238 -509 -509
-58 -245 -64 -747 -12 -1017 68 -350 247 -522 616 -589 121 -22 588 -31 761
-15 497 47 704 247 761 731 20 178 14 659 -11 795 -68 374 -243 553 -605 620
-145 26 -423 39 -651 28z m605 -336 c161 -35 232 -78 282 -174 65 -123 88
-321 80 -668 -15 -595 -97 -677 -692 -692 -347 -8 -545 15 -668 80 -97 51
-139 120 -175 287 -25 116 -24 700 1 825 49 243 141 319 430 355 115 14 659 5
742 -13z"/>
<path d="M3565 4899 c-516 -32 -741 -208 -821 -644 -22 -120 -31 -588 -15
-762 48 -504 260 -716 765 -764 173 -16 640 -7 761 15 369 67 548 239 616 589
41 212 47 608 13 875 -50 395 -240 602 -610 667 -177 31 -449 40 -709 24z
m664 -333 c216 -44 290 -119 339 -346 24 -109 24 -710 0 -820 -36 -167 -78
-236 -175 -287 -123 -65 -321 -88 -668 -80 -505 12 -614 76 -672 390 -22 115
-25 625 -5 752 29 186 84 288 182 337 125 63 243 77 620 74 231 -3 313 -7 379
-20z"/>
<path d="M1000 2393 c-462 -46 -676 -218 -751 -606 -41 -212 -47 -609 -13
-875 44 -345 192 -543 471 -632 231 -74 777 -90 1080 -31 350 68 522 247 589
616 22 121 31 588 15 761 -47 499 -257 714 -745 763 -99 10 -559 13 -646 4z
m702 -327 c308 -56 373 -169 385 -671 8 -347 -15 -545 -80 -668 -51 -97 -120
-139 -287 -175 -110 -24 -711 -24 -820 0 -228 49 -302 123 -347 344 -25 124
-26 708 -1 824 55 254 151 329 463 360 141 14 584 5 687 -14z"/>
<path d="M3457 2389 c-128 -14 -270 -53 -366 -100 -215 -106 -329 -314 -362
-662 -16 -174 -7 -642 15 -762 68 -369 239 -548 589 -616 212 -41 608 -47 875
-13 345 44 542 191 632 471 55 171 80 503 61 810 -27 438 -126 646 -368 770
-86 45 -145 64 -273 88 -102 20 -661 29 -803 14z m728 -319 c347 -53 415 -195
402 -837 -6 -280 -14 -353 -58 -467 -29 -80 -95 -146 -175 -175 -114 -44 -187
-52 -467 -58 -642 -13 -785 56 -837 402 -6 39 -14 167 -17 285 -9 323 17 553
76 668 57 112 176 167 411 192 109 11 574 5 665 -10z"/>
</g>
</svg>
